<?xml version="1.0" encoding="utf-8"?>
<!-- Generator: Adobe Illustrator 25.0.0, SVG Export Plug-In . SVG Version: 6.00 Build 0)  -->
<svg version="1.1" id="Layer_1" xmlns="http://www.w3.org/2000/svg" xmlns:xlink="http://www.w3.org/1999/xlink" x="0px" y="0px"
	 viewBox="0 0 512 512" style="enable-background:new 0 0 512 512;" xml:space="preserve">
<style type="text/css">
	.st0{fill:#FF6347;}
</style>
<path class="st0" d="M373.1,25c28.1-28.1,73.7-28.1,101.8,0L487,37.1c28.1,28.1,28.1,73.7,0,101.8L289.8,336.2
	c-8.7,8.6-19.4,14.9-31.2,18.3l-100,28.6c-8.4,2.4-17.4,0-23.6-7c-6.1-5.3-8.5-14.3-6.1-22.7l28.6-100c3.4-11.8,9.7-22.5,18.3-31.2
	L373.1,25z M440.1,58.9c-8.5-9.4-23.7-9.4-33.1,0L377.9,88l46.1,46.1l29.1-30c9.4-8.5,9.4-23.7,0-33.1L440.1,58.9z M203.7,266.6
	l-16.8,58.5l58.5-16.8c4-1.1,7.5-3.2,10.4-6.1L390.1,168L344,121.9L209.8,256.2C206.9,259.1,204.8,262.6,203.7,266.6z M200,64
	c13.3,0,24,10.8,24,24c0,13.3-10.7,24-24,24H88c-22.1,0-40,17.9-40,40v272c0,22.1,17.9,40,40,40h272c22.1,0,40-17.9,40-40V312
	c0-13.3,10.7-24,24-24s24,10.7,24,24v112c0,48.6-39.4,88-88,88H88c-48.6,0-88-39.4-88-88V152c0-48.6,39.4-88,88-88H200z"/>
</svg>
