<?xml version="1.0" encoding="utf-8"?>
<!-- Generator: Adobe Illustrator 25.0.0, SVG Export Plug-In . SVG Version: 6.00 Build 0)  -->
<svg version="1.1" id="vector" xmlns="http://www.w3.org/2000/svg" xmlns:xlink="http://www.w3.org/1999/xlink" x="0px" y="0px"
	 viewBox="0 0 512 512" style="enable-background:new 0 0 512 512;" xml:space="preserve">
<style type="text/css">
	.st0{fill:#FF6347;}
</style>
<path id="path_1" class="st0" d="M472,64h-88V48c0-26.5-21.5-48-48-48H176c-26.5,0-48,21.5-48,48v16H40C17.9,64,0,81.9,0,104v56
	c0,8.8,7.2,16,16,16h8.7l13.8,290.3c1.2,25.6,22.3,45.7,47.9,45.7h339c25.7,0,46.7-20.1,47.9-45.7l14-290.3h8.7c8.8,0,16-7.2,16-16
	v-56C512,81.9,494.1,64,472,64z M160,48c0-8.8,7.2-16,16-16h160c8.8,0,16,7.2,16,16v16H160V48z M32,104c0-4.4,3.6-8,8-8h432
	c4.4,0,8,3.6,8,8v40H32V104z M441.5,464.8c-0.4,8.5-7.4,15.2-16,15.2h-339c-8.6,0-15.6-6.7-16-15.2L56.8,176h398.4L441.5,464.8z"/>
<path id="path_2" class="st0" d="M256,448c8.8,0,16-7.2,16-16V224c0-8.8-7.2-16-16-16s-16,7.2-16,16v208
	C240,440.8,247.2,448,256,448z M336,448c8.8,0,16-7.2,16-16V224c0-8.8-7.2-16-16-16s-16,7.2-16,16v208C320,440.8,327.2,448,336,448z
	 M176,448c8.8,0,16-7.2,16-16V224c0-8.8-7.2-16-16-16s-16,7.2-16,16v208C160,440.8,167.2,448,176,448z"/>
</svg>
