<?xml version="1.0" encoding="utf-8"?>
<!-- Generator: Adobe Illustrator 25.0.0, SVG Export Plug-In . SVG Version: 6.00 Build 0)  -->
<svg version="1.1" id="Layer_1" xmlns="http://www.w3.org/2000/svg" xmlns:xlink="http://www.w3.org/1999/xlink" x="0px" y="0px"
	 viewBox="0 0 512 512" style="enable-background:new 0 0 512 512;" xml:space="preserve">
<style type="text/css">
	.st0{fill:#FF6347;}
</style>
<path class="st0" d="M243.8,339.8c-10.9,10.9-28.7,10.9-39.6,0l-64-64c-10.9-10.9-10.9-28.7,0-39.6c10.9-10.9,28.7-10.9,39.6,0
	l44.2,44.2l108.2-108.2c10.9-10.9,28.7-10.9,39.6,0c10.9,10.9,10.9,28.7,0,39.6L243.8,339.8z M512,256c0,141.4-114.6,256-256,256
	S0,397.4,0,256S114.6,0,256,0S512,114.6,512,256z M256,48C141.1,48,48,141.1,48,256s93.1,208,208,208s208-93.1,208-208
	S370.9,48,256,48z"/>
</svg>
