<?xml version="1.0" encoding="utf-8"?>
<!-- Generator: Adobe Illustrator 25.0.0, SVG Export Plug-In . SVG Version: 6.00 Build 0)  -->
<svg version="1.1" id="Layer_1" xmlns="http://www.w3.org/2000/svg" xmlns:xlink="http://www.w3.org/1999/xlink" x="0px" y="0px"
	 viewBox="0 0 512 512" style="enable-background:new 0 0 512 512;" xml:space="preserve">
<style type="text/css">
	.st0{fill:#FF6347;}
</style>
<path class="st0" d="M471.6,21.7c-21.9-21.9-57.3-21.9-79.2,0l-30.1,30l97.9,97.9l30.1-30.1c21.9-21.9,21.9-57.3,0-79.2L471.6,21.7z
	 M172.4,241.7c-6.1,6.1-10.8,13.6-13.5,21.9l-29.6,88.8c-2.9,8.6-0.6,18.1,5.8,24.6s15.9,8.7,24.6,5.8l88.8-29.6
	c8.2-2.8,15.7-7.4,21.9-13.5l167.3-167.4l-98-98L172.4,241.7z M96,64c-53,0-96,43-96,96v256c0,53,43,96,96,96h256c53,0,96-43,96-96
	v-96c0-17.7-14.3-32-32-32s-32,14.3-32,32v96c0,17.7-14.3,32-32,32H96c-17.7,0-32-14.3-32-32V160c0-17.7,14.3-32,32-32h96
	c17.7,0,32-14.3,32-32s-14.3-32-32-32H96z"/>
</svg>
